<mxfile host="Electron" agent="Mozilla/5.0 (Windows NT 10.0; Win64; x64) AppleWebKit/537.36 (KHTML, like Gecko) draw.io/24.7.17 Chrome/128.0.6613.36 Electron/32.0.1 Safari/537.36" version="24.7.17">
  <diagram name="Page-1" id="adH4HA1BlCtXch-3m-Xq">
    <mxGraphModel dx="1066" dy="453" grid="1" gridSize="10" guides="1" tooltips="1" connect="1" arrows="1" fold="1" page="1" pageScale="1" pageWidth="1400" pageHeight="850" math="0" shadow="0">
      <root>
        <mxCell id="0" />
        <mxCell id="1" parent="0" />
        <mxCell id="GDoG5F42C37ww6WBeqSB-28" value="&lt;h2 style=&quot;line-height: 100%;&quot;&gt;&lt;font color=&quot;#ffffff&quot;&gt;User&lt;/font&gt;&lt;/h2&gt;" style="rounded=0;whiteSpace=wrap;html=1;fillColor=#36A879;strokeColor=#FFFFFF;" vertex="1" parent="1">
          <mxGeometry x="920" y="290" width="120" height="60" as="geometry" />
        </mxCell>
        <mxCell id="GDoG5F42C37ww6WBeqSB-30" style="edgeStyle=none;shape=flexArrow;rounded=0;orthogonalLoop=1;jettySize=auto;html=1;entryX=0.5;entryY=1;entryDx=0;entryDy=0;fillColor=#dae8fc;strokeColor=#6c8ebf;" edge="1" parent="1" source="GDoG5F42C37ww6WBeqSB-31" target="GDoG5F42C37ww6WBeqSB-38">
          <mxGeometry relative="1" as="geometry" />
        </mxCell>
        <mxCell id="GDoG5F42C37ww6WBeqSB-31" value="&lt;h2 style=&quot;line-height: 100%;&quot;&gt;&lt;font color=&quot;#ffffff&quot;&gt;Drug&lt;/font&gt;&lt;/h2&gt;" style="rounded=0;whiteSpace=wrap;html=1;fillColor=#36A879;strokeColor=#FFFFFF;" vertex="1" parent="1">
          <mxGeometry x="580" y="490" width="120" height="60" as="geometry" />
        </mxCell>
        <mxCell id="GDoG5F42C37ww6WBeqSB-32" style="edgeStyle=none;shape=flexArrow;rounded=0;orthogonalLoop=1;jettySize=auto;html=1;exitX=0;exitY=0;exitDx=0;exitDy=0;entryX=1;entryY=1;entryDx=0;entryDy=0;fillColor=#dae8fc;strokeColor=#6c8ebf;" edge="1" parent="1" source="GDoG5F42C37ww6WBeqSB-35" target="GDoG5F42C37ww6WBeqSB-38">
          <mxGeometry relative="1" as="geometry" />
        </mxCell>
        <mxCell id="GDoG5F42C37ww6WBeqSB-33" style="edgeStyle=none;shape=flexArrow;rounded=0;orthogonalLoop=1;jettySize=auto;html=1;entryX=0.5;entryY=1;entryDx=0;entryDy=0;fillColor=#dae8fc;strokeColor=#6c8ebf;" edge="1" parent="1" source="GDoG5F42C37ww6WBeqSB-35" target="GDoG5F42C37ww6WBeqSB-28">
          <mxGeometry relative="1" as="geometry" />
        </mxCell>
        <mxCell id="GDoG5F42C37ww6WBeqSB-35" value="&lt;h2 style=&quot;line-height: 100%;&quot;&gt;&lt;font color=&quot;#ffffff&quot;&gt;Review&lt;/font&gt;&lt;/h2&gt;" style="rounded=0;whiteSpace=wrap;html=1;fillColor=#36A879;strokeColor=#FFFFFF;" vertex="1" parent="1">
          <mxGeometry x="920" y="490" width="120" height="60" as="geometry" />
        </mxCell>
        <mxCell id="GDoG5F42C37ww6WBeqSB-36" style="edgeStyle=none;shape=flexArrow;rounded=0;orthogonalLoop=1;jettySize=auto;html=1;exitX=1;exitY=0.5;exitDx=0;exitDy=0;entryX=0;entryY=0.509;entryDx=0;entryDy=0;entryPerimeter=0;fillColor=#dae8fc;strokeColor=#6c8ebf;" edge="1" parent="1" source="GDoG5F42C37ww6WBeqSB-38" target="GDoG5F42C37ww6WBeqSB-28">
          <mxGeometry relative="1" as="geometry">
            <mxPoint x="910" y="320.53846153846143" as="targetPoint" />
          </mxGeometry>
        </mxCell>
        <mxCell id="GDoG5F42C37ww6WBeqSB-38" value="&lt;h2 style=&quot;line-height: 100%;&quot;&gt;&lt;font color=&quot;#ffffff&quot;&gt;Visit&lt;/font&gt;&lt;/h2&gt;" style="rounded=0;whiteSpace=wrap;html=1;fillColor=#36A879;strokeColor=#FFFFFF;" vertex="1" parent="1">
          <mxGeometry x="580" y="290" width="120" height="60" as="geometry" />
        </mxCell>
        <mxCell id="GDoG5F42C37ww6WBeqSB-39" value="&lt;font style=&quot;font-size: 14px;&quot;&gt;1:Many&lt;/font&gt;&lt;div style=&quot;font-size: 14px;&quot;&gt;&lt;font style=&quot;font-size: 14px;&quot;&gt;Parent referencing&lt;/font&gt;&lt;/div&gt;" style="text;strokeColor=none;align=center;fillColor=none;html=1;verticalAlign=middle;whiteSpace=wrap;rounded=0;" vertex="1" parent="1">
          <mxGeometry x="741" y="270" width="130" height="30" as="geometry" />
        </mxCell>
        <mxCell id="GDoG5F42C37ww6WBeqSB-41" value="&lt;span style=&quot;font-size: 14px;&quot;&gt;Embedding&lt;/span&gt;" style="text;strokeColor=none;align=center;fillColor=none;html=1;verticalAlign=middle;whiteSpace=wrap;rounded=0;" vertex="1" parent="1">
          <mxGeometry x="520" y="400" width="130" height="30" as="geometry" />
        </mxCell>
        <mxCell id="GDoG5F42C37ww6WBeqSB-43" value="&lt;font style=&quot;font-size: 14px;&quot;&gt;1:Many&lt;/font&gt;&lt;div style=&quot;font-size: 14px;&quot;&gt;&lt;font style=&quot;font-size: 14px;&quot;&gt;Parent referencing&lt;/font&gt;&lt;/div&gt;" style="text;strokeColor=none;align=center;fillColor=none;html=1;verticalAlign=middle;whiteSpace=wrap;rounded=0;" vertex="1" parent="1">
          <mxGeometry x="991" y="400" width="130" height="30" as="geometry" />
        </mxCell>
        <mxCell id="GDoG5F42C37ww6WBeqSB-44" value="&lt;font style=&quot;font-size: 14px;&quot;&gt;1:1&lt;/font&gt;&lt;div style=&quot;font-size: 14px;&quot;&gt;&lt;font style=&quot;font-size: 14px;&quot;&gt;Parent referencing&lt;/font&gt;&lt;/div&gt;" style="text;strokeColor=none;align=center;fillColor=none;html=1;verticalAlign=middle;whiteSpace=wrap;rounded=0;" vertex="1" parent="1">
          <mxGeometry x="718" y="431" width="130" height="30" as="geometry" />
        </mxCell>
        <mxCell id="GDoG5F42C37ww6WBeqSB-47" value="C" style="text;strokeColor=#82b366;align=center;fillColor=#d5e8d4;html=1;verticalAlign=middle;whiteSpace=wrap;rounded=1;glass=0;arcSize=50;shadow=0;movable=1;resizable=1;rotatable=1;deletable=1;editable=1;locked=0;connectable=1;" vertex="1" parent="1">
          <mxGeometry x="1001" y="471" width="20" height="19" as="geometry" />
        </mxCell>
        <mxCell id="GDoG5F42C37ww6WBeqSB-48" value="C" style="text;strokeColor=#82b366;align=center;fillColor=#d5e8d4;html=1;verticalAlign=middle;whiteSpace=wrap;rounded=1;glass=0;arcSize=50;shadow=0;movable=1;resizable=1;rotatable=1;deletable=1;editable=1;locked=0;connectable=1;" vertex="1" parent="1">
          <mxGeometry x="912" y="457" width="20" height="19" as="geometry" />
        </mxCell>
        <mxCell id="GDoG5F42C37ww6WBeqSB-50" value="C" style="text;strokeColor=#82b366;align=center;fillColor=#d5e8d4;html=1;verticalAlign=middle;whiteSpace=wrap;rounded=1;glass=0;arcSize=50;shadow=0;movable=1;resizable=1;rotatable=1;deletable=1;editable=1;locked=0;connectable=1;" vertex="1" parent="1">
          <mxGeometry x="700" y="281" width="20" height="19" as="geometry" />
        </mxCell>
        <mxCell id="GDoG5F42C37ww6WBeqSB-51" value="P" style="text;strokeColor=#82b366;align=center;fillColor=#d5e8d4;html=1;verticalAlign=middle;whiteSpace=wrap;rounded=1;glass=0;arcSize=50;shadow=0;movable=1;resizable=1;rotatable=1;deletable=1;editable=1;locked=0;connectable=1;" vertex="1" parent="1">
          <mxGeometry x="731" y="340" width="20" height="19" as="geometry" />
        </mxCell>
        <mxCell id="GDoG5F42C37ww6WBeqSB-52" value="P" style="text;strokeColor=#82b366;align=center;fillColor=#d5e8d4;html=1;verticalAlign=middle;whiteSpace=wrap;rounded=1;glass=0;arcSize=50;shadow=0;movable=1;resizable=1;rotatable=1;deletable=1;editable=1;locked=0;connectable=1;" vertex="1" parent="1">
          <mxGeometry x="900" y="281" width="20" height="19" as="geometry" />
        </mxCell>
        <mxCell id="GDoG5F42C37ww6WBeqSB-53" value="P" style="text;strokeColor=#82b366;align=center;fillColor=#d5e8d4;html=1;verticalAlign=middle;whiteSpace=wrap;rounded=1;glass=0;arcSize=50;shadow=0;movable=1;resizable=1;rotatable=1;deletable=1;editable=1;locked=0;connectable=1;" vertex="1" parent="1">
          <mxGeometry x="1001" y="350" width="20" height="19" as="geometry" />
        </mxCell>
      </root>
    </mxGraphModel>
  </diagram>
</mxfile>
